HIERARCHY
ROOT hip
{
	OFFSET 0.000000 0.000000 0.000000 
	CHANNELS 6 Xposition Yposition Zposition Xrotation Zrotation Yrotation
	JOINT abdomen
	{
		OFFSET 0.000000 3.402643 0.000000 
		CHANNELS 3 Xrotation Zrotation Yrotation
		JOINT chest
		{
			OFFSET 0.000000 8.438565 -0.680529 
			CHANNELS 3 Xrotation Zrotation Yrotation
			JOINT neck
			{
				OFFSET 0.000000 10.207942 -0.272212 
				CHANNELS 3 Xrotation Zrotation Yrotation
				JOINT head
				{
					OFFSET 0.000000 3.130431 0.000000 
					CHANNELS 3 Xrotation Zrotation Yrotation
					End Site
					{
						OFFSET 0.000000 3.130435 0.000000 
					}
				}
			}
			JOINT lCollar
			{
				OFFSET 3.470700 6.669187 -0.816635 
				CHANNELS 3 Yrotation Zrotation Xrotation
				JOINT lShldr
				{
					OFFSET 3.198488 0.000000 0.000000 
					CHANNELS 3 Zrotation Yrotation Xrotation
					JOINT lForeArm
					{
						OFFSET 10.139888 0.000000 0.000000 
						CHANNELS 3 Yrotation Zrotation Xrotation
						JOINT lHand
						{
							OFFSET 8.370511 0.000000 0.000000 
							CHANNELS 3 Zrotation Yrotation Xrotation
							End Site
							{
								OFFSET 4.083176 0.000000 0.000000 
							}
						}
					}
				}
			}
			JOINT rCollar
			{
				OFFSET -3.470700 6.669187 -0.816635 
				CHANNELS 3 Yrotation Zrotation Xrotation
				JOINT rShldr
				{
					OFFSET -3.198488 0.000000 0.000000 
					CHANNELS 3 Zrotation Yrotation Xrotation
					JOINT rForeArm
					{
						OFFSET -10.139888 0.000000 0.000000 
						CHANNELS 3 Yrotation Zrotation Xrotation
						JOINT rHand
						{
							OFFSET -8.370511 0.000000 0.000000 
							CHANNELS 3 Zrotation Yrotation Xrotation
							End Site
							{
								OFFSET -4.083176 0.000000 0.000000 
							}
						}
					}
				}
			}
		}
	}
	JOINT lThigh
	{
		OFFSET 5.308129 -1.633274 1.361059 
		CHANNELS 3 Xrotation Zrotation Yrotation
		JOINT lShin
		{
			OFFSET -2.041588 -20.007561 0.000000 
			CHANNELS 3 Xrotation Zrotation Yrotation
			JOINT lFoot
			{
				OFFSET 0.000000 -19.190928 -1.224953 
				CHANNELS 3 Xrotation Yrotation Zrotation
				End Site
				{
					OFFSET 0.000000 -2.449906 4.627600 
				}
			}
		}
	}
	JOINT rThigh
	{
		OFFSET -5.308129 -1.633274 1.361059 
		CHANNELS 3 Xrotation Zrotation Yrotation
		JOINT rShin
		{
			OFFSET 2.041588 -20.007561 0.000000 
			CHANNELS 3 Xrotation Zrotation Yrotation
			JOINT rFoot
			{
				OFFSET 0.000000 -19.190928 -1.224953 
				CHANNELS 3 Xrotation Yrotation Zrotation
				End Site
				{
					OFFSET 0.000000 -2.449906 4.627600 
				}
			}
		}
	}
}
MOTION
Frames: 10
Frame Time: 0.016667
-0.011677 49.560219 2.572679 1.085210 -8.162620 59.727501 -21.665899 -1.898070 -4.037350 14.444600 3.019880 -2.344260 32.076900 8.828340 -6.984970 20.393200 5.833900 -3.116880 2.000000 -2.000000 0.000000 100.596001 178.897003 -4.504400 38.154701 -0.322355 0.084519 -179.923996 -179.904999 6.672070 -2.000000 2.000000 0.000000 -102.384003 -159.054993 7.174220 -56.963402 0.289384 0.114617 -0.056569 0.026298 -146.354996 -15.918625 5.349023 -9.376908 49.962101 2.130256 3.315769 -40.857307 9.289098 3.264555 -23.891140 6.295220 -7.483147 34.693302 -1.872129 -2.888649 -25.327187 4.456614 -0.287991 
0.119517 49.801140 4.278546 1.094140 -7.811090 56.793400 -21.558701 -1.574440 -3.199820 14.339600 2.533860 -1.877230 31.892700 8.191650 -6.952300 20.267500 5.584510 -3.056710 2.000000 -2.000000 0.000000 101.065002 176.632996 -4.948870 39.853901 -0.319804 0.087670 -179.921997 -179.901993 5.451380 -2.000000 2.000000 0.000000 -103.352997 -160.921005 6.954100 -54.990700 0.293285 0.111983 -0.056450 0.025569 -146.091995 -16.706797 4.998423 -9.477212 53.392235 1.892002 3.504847 -38.022495 11.686850 5.090428 -22.236053 6.650040 -6.057145 32.275234 -1.956846 -2.736039 -23.999868 5.611177 0.307979 
0.237830 50.001858 5.977842 1.093430 -7.537710 53.987400 -21.475800 -1.273260 -2.395220 14.165800 2.047750 -1.430340 31.732000 7.714830 -6.878420 20.174200 5.418350 -2.987930 2.000000 -2.000000 0.000000 101.455002 174.388000 -5.355180 41.572701 -0.317129 0.090778 -179.919998 -179.899994 4.338080 -2.000000 2.000000 0.000000 -104.194000 -162.766998 6.607020 -53.096199 0.296944 0.109329 -0.056372 0.025083 -145.916000 -17.850353 4.812634 -9.498409 57.153061 1.641639 3.685776 -34.339046 13.913047 6.162407 -20.582512 6.932995 -4.756926 29.581371 -2.018788 -2.540703 -22.506111 6.616608 0.718544 
0.343820 50.166599 7.672542 1.142250 -7.371600 51.376801 -21.456200 -0.977576 -1.661680 13.942600 1.639410 -1.020070 31.607599 7.229400 -6.854690 20.080200 5.223870 -2.935540 2.000000 -2.000000 0.000000 101.737999 172.259003 -5.594600 43.174301 -0.314553 0.093601 -179.908997 -179.888000 3.371310 -2.000000 2.000000 0.000000 -104.975998 -164.604004 6.181840 -51.357899 0.300222 0.106788 -0.056351 0.024948 -145.867004 -19.127371 4.671375 -10.013957 60.394016 1.379446 3.843702 -29.100294 15.667353 6.205168 -19.349205 7.110236 -3.434715 27.477018 -2.062206 -2.402147 -21.269785 7.543719 1.080346 
0.431767 50.279781 9.361502 1.309340 -7.263750 48.964100 -21.461700 -0.694400 -1.017600 13.709000 1.376830 -0.663322 31.501699 6.870700 -6.833230 19.988100 5.085530 -2.906430 2.000000 -2.000000 0.000000 101.913002 170.315994 -5.745660 44.629299 -0.312146 0.096102 -179.917007 -179.895004 2.433790 -2.000000 2.000000 0.000000 -105.680000 -166.451004 5.659060 -49.785599 0.303120 0.104405 -0.056347 0.024921 -145.856995 -20.469509 4.473664 -11.003858 62.926220 1.180239 3.945419 -23.303694 15.195491 4.735024 -18.702509 7.158427 -2.309487 26.140333 -2.074206 -2.316463 -20.070269 8.194657 1.276793 
0.497652 50.337914 11.039016 1.643840 -7.204100 46.736301 -21.483801 -0.439775 -0.477575 13.474800 1.269540 -0.362747 31.373600 6.661550 -6.792780 19.907900 5.021920 -2.873410 2.000000 -2.000000 0.000000 101.950996 168.656998 -5.886280 45.850101 -0.310078 0.098153 -179.914993 -179.893997 1.554890 -2.000000 2.000000 0.000000 -106.266998 -168.356995 5.038820 -48.379398 0.305656 0.102208 -0.056288 0.024543 -145.720993 -21.668623 4.213572 -12.384164 64.409203 1.042708 4.017809 -18.500126 12.294545 2.718790 -18.821531 7.084923 -1.467323 26.068010 -2.099179 -2.274864 -19.104437 8.408916 1.277336 
0.545205 50.346813 12.698195 2.086700 -7.182780 44.670200 -21.513800 -0.215995 -0.019813 13.221000 1.220400 -0.108233 31.183201 6.597690 -6.756100 19.819201 5.005500 -2.857100 2.000000 -2.000000 0.000000 101.949997 167.348007 -6.006520 46.748501 -0.308528 0.099634 -179.914001 -179.891998 0.812704 -2.000000 2.000000 0.000000 -106.678001 -170.283005 4.233100 -47.119598 0.307881 0.100186 -0.056168 0.023759 -145.436996 -22.781334 3.904201 -14.047599 64.851692 0.996489 4.048484 -15.308873 8.513138 1.092765 -19.614952 6.985374 -0.761105 26.896286 -2.075911 -2.359413 -18.196985 8.231573 1.153475 
0.580434 50.310722 14.342153 2.549030 -7.131680 42.738800 -21.513201 -0.057060 0.431805 12.937900 1.171210 0.126583 30.915300 6.596310 -6.787970 19.701099 4.989830 -2.862820 2.000000 -2.000000 0.000000 102.017998 166.440002 -6.076990 47.314899 -0.307539 0.100555 -179.912994 -179.891006 0.217003 -2.000000 2.000000 0.000000 -106.853996 -172.179993 3.232040 -46.055099 0.309726 0.098441 -0.056053 0.022974 -145.154007 -23.639929 3.594429 -15.841965 64.204857 1.021174 4.022780 -13.399439 5.712547 0.228335 -20.924974 6.904759 -0.125897 28.614376 -2.075391 -2.458735 -17.664543 7.749465 0.967085 
0.606794 50.220490 15.975662 3.000730 -6.972940 40.982201 -21.433399 0.020984 0.862434 12.635400 1.054300 0.351385 30.523899 6.605470 -6.891070 19.533199 4.947170 -2.890280 2.000000 -2.000000 0.000000 102.233002 165.912994 -6.078210 47.607899 -0.307024 0.101028 -179.910995 -179.889999 -0.329890 -2.000000 2.000000 0.000000 -106.777000 -173.998993 2.084300 -45.234798 0.311125 0.097072 -0.055995 0.022568 -145.007996 -24.273844 3.248240 -17.695513 62.596821 1.132685 3.978784 -12.463858 4.307882 -0.103066 -22.339434 6.788627 0.683482 30.638432 -2.045817 -2.582558 -17.379866 7.297896 0.822340 
0.627425 50.057541 17.600185 3.411710 -6.658210 39.407902 -21.245701 -0.044819 1.243240 12.391700 0.850665 0.542029 29.983299 6.596520 -7.031300 19.305700 4.868210 -2.933590 2.000000 -2.000000 0.000000 102.613998 165.776001 -6.049230 47.695801 -0.306869 0.101169 -179.910004 -179.878998 -0.925572 -2.000000 2.000000 0.000000 -106.445000 -175.789001 0.916984 -44.687901 0.312047 0.096149 -0.056002 0.022622 -145.026993 -24.409056 2.933246 -19.567650 59.761230 1.318408 3.851319 -12.295384 3.691153 -0.237862 -23.780535 6.576336 1.658465 32.957188 -2.002580 -2.732982 -17.312294 7.179448 0.827977 
